<?xml version="1.0" encoding="UTF-8" standalone="no"?>
<!-- Created with Inkscape (http://www.inkscape.org/) -->

<svg
   width="1920"
   height="1080"
   viewBox="0 0 1920 1080"
   version="1.1"
   id="svg5"
   xml:space="preserve"
   inkscape:version="1.2.1 (9c6d41e410, 2022-07-14)"
   sodipodi:docname="rysunek.svg"
   xmlns:inkscape="http://www.inkscape.org/namespaces/inkscape"
   xmlns:sodipodi="http://sodipodi.sourceforge.net/DTD/sodipodi-0.dtd"
   xmlns:xlink="http://www.w3.org/1999/xlink"
   xmlns="http://www.w3.org/2000/svg"
   xmlns:svg="http://www.w3.org/2000/svg"><sodipodi:namedview
     id="namedview7"
     pagecolor="#ffffff"
     bordercolor="#000000"
     borderopacity="0.25"
     inkscape:showpageshadow="2"
     inkscape:pageopacity="0.0"
     inkscape:pagecheckerboard="0"
     inkscape:deskcolor="#d1d1d1"
     inkscape:document-units="px"
     showgrid="false"
     inkscape:zoom="0.45593656"
     inkscape:cx="600.9608"
     inkscape:cy="422.20786"
     inkscape:window-width="1920"
     inkscape:window-height="1028"
     inkscape:window-x="-8"
     inkscape:window-y="-8"
     inkscape:window-maximized="1"
     inkscape:current-layer="layer2" /><defs
     id="defs2"><linearGradient
       inkscape:collect="always"
       id="linearGradient17795"><stop
         style="stop-color:#1dbf12;stop-opacity:1;"
         offset="0"
         id="stop17791" /><stop
         style="stop-color:#24d017;stop-opacity:0;"
         offset="1"
         id="stop17793" /></linearGradient><linearGradient
       inkscape:collect="always"
       id="linearGradient12353"><stop
         style="stop-color:#1ebf12;stop-opacity:1;"
         offset="0"
         id="stop12349" /><stop
         style="stop-color:#24d017;stop-opacity:0;"
         offset="1"
         id="stop12351" /></linearGradient><linearGradient
       inkscape:collect="always"
       id="linearGradient7721"><stop
         style="stop-color:#0a5b9e;stop-opacity:1;"
         offset="0"
         id="stop7717" /><stop
         style="stop-color:#10b6ef;stop-opacity:0;"
         offset="1"
         id="stop7719" /></linearGradient><inkscape:path-effect
       effect="spiro"
       id="path-effect5326"
       is_visible="true"
       lpeversion="1" /><inkscape:path-effect
       effect="spiro"
       id="path-effect177"
       is_visible="true"
       lpeversion="1" /><inkscape:path-effect
       effect="spiro"
       id="path-effect173"
       is_visible="true"
       lpeversion="1" /><inkscape:path-effect
       effect="spiro"
       id="path-effect169"
       is_visible="true"
       lpeversion="1" /><linearGradient
       inkscape:collect="always"
       xlink:href="#linearGradient7721"
       id="linearGradient7723"
       x1="1269.9135"
       y1="1024.2653"
       x2="1359.8383"
       y2="-287.32068"
       gradientUnits="userSpaceOnUse"
       gradientTransform="matrix(0.99888359,0,0,0.99398914,-0.01717739,6.5403121)" /><linearGradient
       inkscape:collect="always"
       xlink:href="#linearGradient12353"
       id="linearGradient12355"
       x1="949.69354"
       y1="647.01984"
       x2="951.88684"
       y2="1438.7966"
       gradientUnits="userSpaceOnUse"
       gradientTransform="matrix(0.99888359,0,0,0.99398914,-0.01717739,6.5403121)" /><linearGradient
       inkscape:collect="always"
       xlink:href="#linearGradient17795"
       id="linearGradient12357"
       x1="916.79419"
       y1="1065.9377"
       x2="855.38214"
       y2="1778.7562"
       gradientUnits="userSpaceOnUse"
       gradientTransform="matrix(0.99888359,0,0,0.99398914,-2.2080164,4.360208)" /></defs><g
     inkscape:groupmode="layer"
     id="layer2"
     inkscape:label="Warstwa 2"><rect
       style="opacity:1;fill:url(#linearGradient7723);fill-opacity:1;stroke:none;stroke-width:15.0642;stroke-opacity:0"
       id="rect6387"
       width="1919.1749"
       height="839.34003"
       x="-0.017177384"
       y="1.8174457e-07" /></g><g
     inkscape:groupmode="layer"
     id="layer3"
     inkscape:label="Warstwa 3" /><g
     inkscape:label="Warstwa 1"
     inkscape:groupmode="layer"
     id="layer1"><path
       id="path167"
       style="opacity:0;fill:#00ff00;stroke:#000000;stroke-width:15.0642"
       d="M 965.62623,340.10714 C 611.96161,337.54661 259.30955,477.62366 4.6299725,721.82616 L 1928.6827,743.40853 c -0.6374,-0.63936 -1.2811,-1.27222 -1.9198,-1.91032 -0.2577,0.0129 -0.4507,0.004 -0.716,0.0194 -3.6195,1.36571 -4.5931,2.01371 -4.9105,0.35527 -0.01,5.7e-4 -0.01,-5.8e-4 -0.014,0 0,5.5e-4 -0.017,-0.10046 -0.022,-0.11842 -0.025,-0.15984 -0.068,-0.30475 -0.086,-0.50477 0,-0.0271 0,-0.0248 -0.01,-0.0524 -0.082,-0.4016 -0.1745,-0.80087 -0.2594,-1.20173 -0.095,-0.44455 -0.1881,-0.89085 -0.281,-1.33566 -0.2845,-1.36578 -0.5225,-2.73995 -0.757,-4.1138 C 1668.7104,487.40398 1318.7271,342.6636 965.62623,340.10714 Z" /><path
       style="opacity:0;fill:#00ff00;stroke:#000000;stroke-width:15.0642"
       d="m 587.11336,596.96023 178.15307,12.33253"
       id="path171"
       inkscape:path-effect="#path-effect173"
       inkscape:original-d="m 587.11336,596.96023 c 59.38536,4.11183 118.76972,8.22267 178.15307,12.33253" /><path
       style="opacity:0;fill:#00ff00;stroke:#000000;stroke-width:15.0642"
       d="m 825.68356,604.66806 c 3.61465,0.0229 7.22945,0.0229 10.8441,0 55.11247,-0.34906 110.18984,-6.03663 164.21064,-16.95723 h 1.5492"
       id="path175"
       inkscape:path-effect="#path-effect177"
       inkscape:original-d="m 825.68356,604.66806 c 3.6157,9.9e-4 7.2304,9.9e-4 10.8441,0 3.6137,-10e-4 109.47477,-11.30383 164.21064,-16.95723 0,0 1.0338,9.9e-4 1.5492,0" /><path
       style="opacity:0;fill:#00ff00;stroke:#000000;stroke-width:15.0642"
       d="M 680.06279,354.93431 1301.2748,344.14335"
       id="path179" /><path
       id="path5324"
       style="opacity:1;fill:url(#linearGradient12355);fill-opacity:1;stroke:#000000;stroke-width:19.1998;stroke-opacity:0"
       d="m 788.93503,643.49515 c -264.81953,1.13568 -529.59868,10.72846 -793.8139611,28.54807 0.025604,1.41779 0.059897,2.83535 0.1307133,4.25163 0.1493491,2.84756 0.3588413,5.69071 0.5696758,8.53433 0.2317881,3.85046 0.3350752,7.71758 -0.1541247,11.55512 -0.1000621,0.92035 -0.2022535,1.84034 -0.3062982,2.76066 L 1919.1133,730.24788 c -0.095,-0.82165 -0.2272,-1.63753 -0.2907,-2.46361 -0.3582,-3.53301 -0.6851,-7.07549 -0.5287,-10.63102 0.04,-2.57636 0.096,-5.15294 0.2966,-7.72284 0.1965,-2.4546 0.4151,-4.91058 0.7998,-7.34426 0.1947,-1.46656 0.086,-2.95747 0.1463,-4.43218 0,-0.78012 -0.012,-1.5557 -0.1248,-2.32966 -0.085,-0.32109 -0.1628,-0.64016 -0.2868,-0.94934 -0.072,-0.1803 -0.1583,-0.3552 -0.2303,-0.53582 -0.01,-0.0186 -0.025,-0.0466 -0.01,-0.0601 0.012,-0.0108 0.025,0.0209 0.037,0.031 1.3593,1.11719 2.5427,1.83909 3.6054,2.2986 -0.053,-1.48721 -0.1238,-2.97485 -0.1795,-4.46131 -0.01,-0.5659 -0.062,-1.12956 -0.082,-1.69483 C 1545.4405,657.56216 1167.1631,641.8734 788.93853,643.49517 Z" /><path
       id="rect5944"
       style="opacity:1;fill:url(#linearGradient12357);fill-opacity:1;stroke:none;stroke-width:15.0642;stroke-opacity:0"
       d="M -5.3061163,691.89783 V 1088.0821 H 1921.8446 V 740.05194 c -1.6926,0.62367 -2.6681,0.84769 -2.899,-0.35915 -0.01,5.7e-4 -0.01,-5.7e-4 -0.014,0 0,5.5e-4 -0.017,-0.10046 -0.022,-0.11842 -0.025,-0.15983 -0.068,-0.30475 -0.086,-0.50477 0,-0.0271 0,-0.0248 -0.01,-0.0524 -0.082,-0.40159 -0.1745,-0.80087 -0.2594,-1.20172 -0.095,-0.44456 -0.1881,-0.89086 -0.281,-1.33567 -0.7485,-3.59406 -1.3611,-7.21185 -1.6426,-10.87564 -0.3582,-3.533 -0.6852,-7.07547 -0.5287,-10.63102 0.04,-2.57636 0.096,-5.15294 0.2965,-7.72284 0.1965,-2.45461 0.4152,-4.91057 0.7998,-7.34426 0.1947,-1.46656 0.086,-2.95746 0.1464,-4.43218 0,-0.78012 -0.012,-1.5557 -0.1249,-2.32966 -0.085,-0.32109 -0.1627,-0.64016 -0.2868,-0.94934 -0.04,-0.0998 -0.083,-0.1986 -0.1267,-0.29703 z m 1922.4080163,0 c 1.1989,0.94266 2.2778,1.61523 3.2386,2.03069 -0.024,-0.67695 -0.054,-1.35371 -0.082,-2.03069 z" /></g></svg>
